<svg width="100" height="96" viewBox="0 0 100 96" fill="none" xmlns="http://www.w3.org/2000/svg">
<g filter="url(#filter0_i)">
<path d="M96.7679 33.6123L66.7898 29.2573L53.3889 2.10081C53.0228 1.35728 52.4207 0.755374 51.6768 0.389511C49.8113 -0.531048 47.5444 0.236085 46.6116 2.10081L33.2106 29.2573L3.23258 33.6123C2.40609 33.7303 1.65044 34.1197 1.07189 34.7099C0.372466 35.4284 -0.0129512 36.3952 0.00033232 37.3977C0.0136159 38.4002 0.424513 39.3564 1.14274 40.0562L22.8323 61.1936L17.708 91.041C17.5878 91.7353 17.6647 92.4494 17.9299 93.1023C18.1951 93.7551 18.6379 94.3207 19.2083 94.7347C19.7787 95.1488 20.4537 95.3949 21.1568 95.445C21.86 95.4951 22.5631 95.3473 23.1865 95.0183L50.0002 80.9267L76.814 95.0183C77.546 95.4078 78.3961 95.5376 79.2108 95.396C81.2653 95.0419 82.6467 93.0945 82.2925 91.041L77.1682 61.1936L98.8577 40.0562C99.4481 39.4779 99.8377 38.7225 99.9558 37.8964C100.275 35.831 98.8341 33.9191 96.7679 33.6123Z" fill="#F8EA70"/>
</g>
<defs>
<filter id="filter0_i" x="0" y="0" width="104" height="99.4545" filterUnits="userSpaceOnUse" color-interpolation-filters="sRGB">
<feFlood flood-opacity="0" result="BackgroundImageFix"/>
<feBlend mode="normal" in="SourceGraphic" in2="BackgroundImageFix" result="shape"/>
<feColorMatrix in="SourceAlpha" type="matrix" values="0 0 0 0 0 0 0 0 0 0 0 0 0 0 0 0 0 0 127 0" result="hardAlpha"/>
<feOffset dx="4" dy="6"/>
<feGaussianBlur stdDeviation="2"/>
<feComposite in2="hardAlpha" operator="arithmetic" k2="-1" k3="1"/>
<feColorMatrix type="matrix" values="0 0 0 0 0 0 0 0 0 0 0 0 0 0 0 0 0 0 0.25 0"/>
<feBlend mode="normal" in2="shape" result="effect1_innerShadow"/>
</filter>
</defs>
</svg>
